<svg xmlns="http://www.w3.org/2000/svg">
  <symbol id="person1" viewBox="0 0 216 195">
    <path d="m204 177c1.944-1.506 6.702-2.976 8.496-4.572l-32.496-77.178s-28.854-86.25-64.452-86.25h-15.096c-35.598 0-64.452 86.25-64.452 86.25l-32.496 77.178c1.794 1.596 6.552 3.066 8.496 4.572h192z" fill="#323232"/>
    <path d="m48 117 24 42 30-42h-54z" fill="#505050"/>
    <path d="m144 159 24-42h-54l30 42z" fill="#505050"/>
    <path d="m54 103.5c0-4.122 2.22-10.158 4.932-13.404 0 0 7.602-9.096 23.07-9.096 7.842 0 13.314 3.378 13.314 3.378 3.678 2.268 6.684 7.5 6.684 11.622v11.25c0 2.064-3.6 3.75-7.998 3.75h-32.004c-4.398 0-7.998-3.378-7.998-7.5" fill="#000"/>
    <path d="m154 111h-31.998c-4.404 0-8.004-1.686-8.004-3.75v-11.25c0-4.128 3.012-9.354 6.684-11.622 0 0 5.472-3.378 13.32-3.378 15.462 0 23.064 9.096 23.064 9.096 2.712 3.246 4.932 9.282 4.932 13.404 0 4.128-3.6 7.5-7.998 7.5" fill="#000"/>
    <path d="m180 81v-13.548c0-34.854-27.678-63.168-62.244-64.338-1.65-1.896-4.05-3.114-6.756-3.114h-6c-2.706 0-5.106 1.218-6.756 3.114-34.566 1.17-62.244 29.484-62.244 64.338v13.548l-36 96h12l31.668-77.094c8.13-20.316 19.392-28.98 37.674-28.98 12.498 0 20.232 9.762 20.658 10.074h12c0.426-0.312 8.16-10.074 20.658-10.074 18.282 0 29.544 8.664 37.662 28.95l31.68 77.124h12l-36-96z" fill="#000"/>
    <path d="m53.919 63c-1.548 0-2.808-1.254-2.808-2.808 0-23.202 18.876-42.078 42.084-42.078 1.548 0 2.802 1.254 2.802 2.808 0 1.548-1.254 2.802-2.802 2.802-20.112 0-36.468 16.362-36.468 36.468 0 1.554-1.26 2.808-2.808 2.808" fill="#1A1A1A"/>
    <path d="m108 117c-3.312 0-6 2.682-6 6v6h12v-6c0-3.318-2.688-6-6-6m45 60c-3.312 0-6 2.688-6 6s2.688 6 6 6 6-2.688 6-6-2.688-6-6-6m-90 0c-3.312 0-6 2.688-6 6s2.688 6 6 6 6-2.688 6-6-2.688-6-6-6" fill="#fff"/>
    <path d="m158.74 172.53 9.252-55.53-24 42-24-33.6v-2.4c0-6.618-5.376-12-12-12-6.618 0-12 5.382-12 12v2.4l-24 33.6-24-42 9.258 55.53c-3.708 2.046-6.258 5.946-6.258 10.47 0 6.618 5.382 12 12 12 4.428 0 8.25-2.43 10.332-6h69.342c2.076 3.57 5.904 6 10.326 6 6.624 0 12-5.382 12-12 0-4.524-2.544-8.424-6.252-10.47" fill="#000"/>
    <path d="m84 177h12v-31.542l-12 16.458v15.084z" fill="#323232"/>
    <path d="m120 145.46v31.542h12v-15.084l-12-16.458z" fill="#323232"/>
    <path d="m102 177h12v-36h-12v36z" fill="#323232"/>
    <path d="m108 117c-3.312 0-6 2.682-6 6v6h12v-6c0-3.318-2.688-6-6-6m45 60c-3.312 0-6 2.688-6 6s2.688 6 6 6 6-2.688 6-6-2.688-6-6-6m-90 0c-3.312 0-6 2.688-6 6s2.688 6 6 6 6-2.688 6-6-2.688-6-6-6" fill="#fff"/>
  </symbol>
  <symbol id="person2" viewBox="0 0 180 157">
    <path d="m178.79 147.3c-18.828-27.234-22.878-45.456-22.866-51.636 0.024-0.792 0.114-1.554 0.114-2.352 0-25.65-11.64-52.416-28.374-70.626l12.132-12.132c3.78-3.78 1.104-10.242-4.242-10.242h-45.516c-25.044 0-66.114 48.264-66.114 93 0 0.798 0.096 1.56 0.114 2.352 0.012 6.18-3.918 24.402-22.746 51.636-2.694 3.9-0.498 9.306 4.128 9.306h42.618v-0.294h84v0.294h42.624c4.626 0 6.822-5.406 4.128-9.306" fill="#8C5A3C"/>
    <path d="m141.04 93.307c0 31.482-22.836 57-51 57s-51-25.518-51-57 32.274-57 51-57c19.524 0 51 25.518 51 57" fill="#323232"/>
    <path d="m78.044 90.307c0 6.63-5.37 12-12 12s-12-5.37-12-12 5.37-12 12-12 12 5.37 12 12" fill="#F1C40F"/>
    <path d="m126.04 90.307c0 6.63-5.37 12-12 12s-12-5.37-12-12 5.37-12 12-12 12 5.37 12 12" fill="#F1C40F"/>
  </symbol>
</svg>
